<svg id="SvgjsSvg1001" width="288" height="288" xmlns="http://www.w3.org/2000/svg" version="1.1" xmlns:xlink="http://www.w3.org/1999/xlink" xmlns:svgjs="http://svgjs.com/svgjs"><rect id="SvgjsRect1012" width="288" height="288" rx="20" ry="20" transform="matrix(0.7916,0,0,0.7916,30.009600000000006,30.009600000000006)" fill="#87ddfd"></rect><defs id="SvgjsDefs1002"></defs><g id="SvgjsG1008" transform="matrix(0.76,0,0,0.76,34.595998535156255,34.5600146484375)"><svg xmlns="http://www.w3.org/2000/svg" data-name="Layer 1" viewBox="0 0 48 48" width="288" height="288"><path fill="#7d8c94" d="M31.64,27.72a13.94,13.94,0,0,1-15.28,0A18,18,0,0,0,6.05,42.94a1,1,0,0,0,.27.75,1,1,0,0,0,.73.31H41a1,1,0,0,0,.73-.31,1,1,0,0,0,.27-.75A18,18,0,0,0,31.64,27.72Z" class="color42c3cf svgShape"></path><circle cx="24" cy="16" r="12" fill="#7d8c94" class="color42c3cf svgShape"></circle></svg></g></svg>